<?xml version="1.0" encoding="UTF-8"?><svg id="a" xmlns="http://www.w3.org/2000/svg" xmlns:xlink="http://www.w3.org/1999/xlink" viewBox="0 0 1080 1080"><defs><style>.c,.d{fill:#ee6061;}.e{fill:#ff8080;}.f{clip-path:url(#b);}.d{fill-rule:evenodd;}.g{fill:#ffbebe;}.h{fill:#ff6e6f;}.i{fill:none;}.j{fill:#ff8e8e;}</style><clipPath id="b"><rect class="i" x="325.08" y="41.3" width="429.84" height="422.67"/></clipPath></defs><g class="f"><path class="e" d="M568.84,212.87c7.33-32.33,35.72-57.09,52.37-84.88,12.71-21.25-3.5-44.42-26.79-55.51-40.54-18.43-66.94-.78-75.13,36.53-9.23,43.69,12.71,89.67,21.32,100.98,5.99,2.46,20.39,.89,28.23,2.87Z"/><path class="h" d="M538.54,203.79c-15.7-29.27-10.43-66.34-16.06-98.16-4.32-24.32-31.88-31.47-56.85-24.9-42.91,12.11-51.34,42.5-33.01,76.1,21.72,39.12,68.64,59.9,82.61,62.96,6.16-1.99,16.07-12.45,23.32-16Z"/><path class="e" d="M509.56,216.4c-31.17-12.11-51.55-43.66-76.76-64.2-19.28-15.68-44.91-3.38-59.55,17.69-24.62,36.81-11.03,65.32,24.99,79.04,42.23,15.72,91.52,1.3,104.14-5.38,3.37-5.48,4.01-19.8,7.19-27.16Z"/><path class="j" d="M495.84,244.64c-31.64,10.87-67.86,.04-100.51,.67-24.95,.5-36.32,26.35-33.58,51.77,5.52,43.8,34.59,56.7,70.96,43.93,42.4-15.25,70.35-57.93,75.54-71.12-1.04-6.33-9.97-17.62-12.41-25.25Z"/><path class="h" d="M504.01,274.91c-16.87,28.62-51.5,43.71-75.88,65.22-18.62,16.44-10.25,43.39,8.55,60.92,33,29.7,63.56,20.79,82.78-12.33,22.16-38.87,15.32-89.27,10.58-102.63-4.95-4.13-19.16-6.96-26.03-11.18Z"/><path class="e" d="M530.12,292.64c6.01,32.6-10.35,66.35-14.72,98.37-3.32,24.47,20.75,39.54,46.57,40.75,44.6,1.31,61.93-25.13,54.75-62.65-8.74-43.79-47.09-77.64-59.48-84.74-6.48,.05-19.12,7.05-27.12,8.26Z"/><path class="j" d="M561.59,289.3c26.01,20.88,35.78,57.05,53.52,84.17,13.58,20.72,41.77,16.66,62.17,.97,34.72-27.72,30.5-58.95,.36-82.81-35.44-27.62-86.83-28.64-100.9-26.05-4.89,4.21-9.88,17.67-15.16,23.73Z"/><path class="h" d="M583.32,266.5c33.48-.89,64.69,20.28,96.01,29.45,23.94,6.99,42.68-14.23,47.84-39.29,8.13-43.4-15.62-64.4-54.2-63.12-45.08,1.84-84.77,34.15-93.75,45.17-.94,6.34,4.12,19.78,4.1,27.78Z"/><path class="j" d="M584.78,235.2c24.84-22.23,62.46-26.24,92.27-39.44,22.77-10.1,23.04-38.28,10.49-60.63-22.37-38.19-54.22-38.84-82.67-13.04-33.02,30.41-41.91,80.5-41.48,94.65,3.46,5.42,16.13,12.37,21.39,18.45Z"/><path class="g" d="M606.89,248.86c0,4.26-.42,8.49-1.26,12.67-.84,4.18-2.09,8.24-3.73,12.18-1.65,3.94-3.67,7.68-6.06,11.22-2.39,3.54-5.11,6.82-8.16,9.84-3.05,3.01-6.36,5.71-9.95,8.07-3.58,2.37-7.37,4.37-11.35,6-3.98,1.63-8.09,2.86-12.31,3.69-4.23,.83-8.49,1.25-12.8,1.25s-8.58-.42-12.8-1.25c-4.23-.83-8.33-2.06-12.31-3.69-3.98-1.63-7.76-3.63-11.35-6-3.58-2.37-6.9-5.06-9.94-8.07-3.05-3.01-5.77-6.29-8.16-9.84-2.39-3.54-4.42-7.29-6.06-11.22-1.65-3.94-2.89-8-3.73-12.18-.84-4.18-1.26-8.4-1.26-12.67s.42-8.49,1.26-12.67c.84-4.18,2.09-8.24,3.73-12.18,1.65-3.94,3.67-7.68,6.06-11.22,2.39-3.54,5.11-6.82,8.16-9.84,3.05-3.01,6.36-5.71,9.94-8.07,3.58-2.37,7.37-4.37,11.35-6,3.98-1.63,8.08-2.86,12.31-3.69,4.23-.83,8.49-1.25,12.8-1.25s8.58,.42,12.8,1.25c4.23,.83,8.33,2.06,12.31,3.69,3.98,1.63,7.76,3.63,11.35,6,3.58,2.37,6.9,5.06,9.95,8.07,3.05,3.01,5.77,6.29,8.16,9.84,2.39,3.54,4.42,7.29,6.06,11.22,1.65,3.94,2.89,8,3.73,12.18,.84,4.18,1.26,8.4,1.26,12.67Z"/><path class="d" d="M656.49,145.48c-9.24,4.19-18.45,10.6-26.82,17.63-8.41,7.03-16.02,14.67-22.14,21.32,17.07-13.27,37-29.27,48.97-38.95Z"/><path class="d" d="M573.97,98.41c-5.04,8.73-8.74,19.25-11.4,29.79-2.69,10.56-4.37,21.16-5.43,30.09,6.05-20.63,12.82-45.13,16.83-59.88Z"/><path class="d" d="M472.09,111.04c1.56,9.94,5.29,20.45,9.84,30.33,4.55,9.92,9.91,19.24,14.71,26.89-8.26-19.86-18.4-43.2-24.55-57.22Z"/><path class="d" d="M397.39,190.46c7.8,6.45,17.61,11.91,27.63,16.36,10.03,4.48,20.28,7.99,28.98,10.6-19.46-9.53-42.64-20.45-56.61-26.96Z"/><path class="d" d="M452.8,277.04c-10.65,2.13-22.23,4.57-33.02,6.89-10.82,2.31-20.86,4.51-28.4,6.17,20.35,.74,44.45-6.62,61.42-13.07Z"/><path class="d" d="M495.79,328.99c-6.34,8.73-13.16,18.31-19.47,27.27-6.35,8.98-12.2,17.34-16.58,23.63,15.43-13.15,28.03-34.76,36.05-50.91Z"/><path class="d" d="M562.65,338.31c1.3,10.68,2.84,22.29,4.32,33.12,1.47,10.86,2.88,20.93,3.97,28.5,2.36-20.01-3.15-44.36-8.29-61.61Z"/><path class="d" d="M615.71,303.89c7.93,7.36,16.64,15.28,24.81,22.64,8.17,7.39,15.8,14.21,21.54,19.33-11.18-16.84-31.2-32.01-46.35-41.97Z"/><path class="d" d="M696.8,252.4c-9.62-3.26-20.75-4.89-31.72-5.5-10.99-.63-21.83-.28-30.9,.37,21.62,2.01,47.21,3.99,62.62,5.13Z"/></g><g><g><path class="c" d="M86.19,738.81c-18.14,0-32.46-5.34-42.95-16.01-10.5-10.85-15.74-25.35-15.74-43.49,0-28.63,11.91-54.6,35.75-77.9-9.07-7.82-13.61-16.36-13.61-25.61,0-16.72,9.96-25.08,29.88-25.08,5.16,0,10.18,.76,15.07,2.27,4.89,1.51,9.65,3.78,14.27,6.8l.27,.27c.35,.18,.49,.4,.4,.67-.09,.27-.13,.58-.13,.93,0,.53-.18,.8-.53,.8-.18,0-.71-.27-1.6-.8-8-4.8-16.1-7.2-24.28-7.2s-14.32,1.87-19.48,5.6c-5.87,3.91-8.8,9.78-8.8,17.61s3.74,14.67,11.21,21.61c23.12-21.52,52.2-32.28,87.24-32.28,11.74,0,21.88,1.69,30.41,5.07,12.27,4.45,18.41,11.56,18.41,21.34,0,7.47-4.89,13.96-14.67,19.48-3.38,2.13-7.12,3.96-11.21,5.47-4.09,1.51-8.45,2.71-13.07,3.6-8,1.6-16.63,2.4-25.88,2.4-24.37,0-45.27-5.07-62.7-15.21-20.1,22.59-30.15,47.05-30.15,73.37,0,14.41,3.29,26.5,9.87,36.28,7.47,11.38,18.14,17.07,32.02,17.07,26.5,0,48.2-12.71,65.1-38.15,5.69-8.71,8.54-16.63,8.54-23.74,0-6.22-2.13-11.29-6.4-15.21-4.09-4.09-9.25-6.14-15.47-6.14s-11.65,1.78-16.81,5.34c-5.34,3.38-9.16,8-11.47,13.87-.53,1.43-1.16,2.13-1.87,2.13s-1.07-.44-1.07-1.33c0-.18,.04-.4,.13-.67,.09-.27,.13-.49,.13-.67,2.31-6.58,6.58-11.74,12.81-15.47,5.87-3.74,12.36-5.6,19.48-5.6,7.65,0,14.05,2.31,19.21,6.94,4.8,4.8,7.2,10.94,7.2,18.41,0,8.54-2.58,16.72-7.74,24.54-7.12,11.38-17.52,20.72-31.21,28.01-13.16,7.11-26.68,10.67-40.55,10.67Zm44.55-117.92c6.58,0,13.07-.53,19.48-1.6,6.4-1.07,12.81-2.49,19.21-4.27,17.78-5.69,26.68-13.51,26.68-23.48,0-14.23-13.61-21.34-40.82-21.34-28.99,0-55.23,12.27-78.7,36.82,16.01,9.25,34.06,13.87,54.16,13.87Z"/><path class="c" d="M208.12,728.41c-7.83,0-13.79-3.38-17.88-10.14-3.74-5.69-5.6-12.63-5.6-20.81,0-14.05,4.44-27.12,13.34-39.22,9.78-13.16,21.52-19.74,35.22-19.74,6.94,0,12.27,2.4,16.01,7.2,3.56,4.63,5.34,10.5,5.34,17.61,0,3.2-.31,6.49-.93,9.87-.63,3.38-1.56,6.94-2.8,10.67-2.67,7.83-5.96,13.96-9.87,18.41l.53,.8c1.78,1.25,3.91,1.87,6.4,1.87,5.16,0,9.51-1.69,13.07-5.07,3.56-3.38,7.56-9.43,12.01-18.14,.18-.71,.53-1.07,1.07-1.07,.35,0,.62,.23,.8,.67,.18,.45,.09,1.03-.27,1.73-3.74,7.83-7.7,13.79-11.87,17.88-4.18,4.09-9.03,6.14-14.54,6.14-3.56,0-6.32-.98-8.27-2.93-1.78,3.2-3.74,6.18-5.87,8.94-2.13,2.76-4.54,5.2-7.2,7.34-6.05,5.34-12.27,8-18.68,8Zm1.87-2.13c9.43,0,18.68-7.2,27.75-21.61,0-.53,.27-1.07,.8-1.6-3.2-5.34-4.8-10.4-4.8-15.21v-1.2c0-.62,.09-1.47,.27-2.53,.18-1.96,.53-3.96,1.07-6,.53-2.04,1.42-3.96,2.67-5.74,2.67-4.27,5.87-6.4,9.6-6.4h2.4c.71,.18,1.24,.27,1.6,.27h.8c0-16.01-5.07-24.01-15.21-24.01-8.54,0-16.63,5.16-24.28,15.47-6.23,8.18-10.67,17.34-13.34,27.48-1.6,5.52-2.4,11.3-2.4,17.34,0,15.83,4.36,23.74,13.07,23.74Z"/><path class="c" d="M277.75,727.61c-4.45,0-8-1.51-10.67-4.54-2.49-3.02-3.74-6.67-3.74-10.94,0-3.91,1.2-9.07,3.6-15.47s5.82-14.05,10.27-22.94c1.96-3.91,4.49-8.67,7.6-14.27,3.11-5.6,6.89-12.05,11.34-19.34h.53c1.24,.89,2.67,1.33,4.27,1.33,3.74,0,8-1.87,12.81-5.6l.53,.53c-2.67,3.03-7.3,10.4-13.87,22.14-2.13,3.74-4.14,7.2-6,10.4-1.87,3.2-3.69,6.23-5.47,9.07-10.5,17.97-15.74,31.13-15.74,39.49,0,4.8,2.22,7.2,6.67,7.2,9.96,0,23.74-15.56,41.35-46.69,2.49-4.44,5.42-9.96,8.8-16.54,3.38-6.58,7.29-14.23,11.74-22.94h.53c1.24,.53,2.4,.98,3.47,1.33,1.07,.36,2.13,.53,3.2,.53,3.91,0,6.67-1.78,8.27-5.34l.8,.27-20.81,40.29c-12.27,23.48-18.41,38.33-18.41,44.55,0,3.2,1.51,4.8,4.54,4.8,2.13,0,4.76-.89,7.87-2.67,3.11-1.78,6.36-4.54,9.74-8.27,4.27-4.98,7.96-9.74,11.07-14.27,3.11-4.54,6.71-10.71,10.81-18.54,.53-.89,1.07-1.33,1.6-1.33,1.07,0,1.07,.89,0,2.67-3.2,6.05-6.63,12.05-10.27,18.01-3.65,5.96-8.05,11.52-13.21,16.67-6.76,6.76-12.72,10.14-17.88,10.14-4.63,0-8.14-1.16-10.54-3.47-2.4-2.31-3.6-6.04-3.6-11.21,0-4.27,.89-8.98,2.67-14.14-11.92,19.39-23.21,29.08-33.88,29.08Z"/><path class="c" d="M340.18,735.08l-.27-.53c6.4-13.87,14.67-33.08,24.81-57.63,1.6-4.09,3.51-9.16,5.74-15.21,2.22-6.04,4.76-13.07,7.6-21.08h.53c1.78,1.43,3.29,2.13,4.54,2.13,4.44,0,8.62-3.82,12.54-11.47v.27c0,.36-3.91,9.87-11.74,28.55-4.27,10.14-7.47,17.88-9.6,23.21-2.13,5.34-3.38,8.36-3.74,9.07,20.28-36.46,36.46-54.69,48.56-54.69,2.67,0,5.07,.89,7.2,2.67,2.13,1.78,3.2,4.09,3.2,6.94,0,7.47-5.07,19.74-15.21,36.82-10.14,17.07-15.21,28.73-15.21,34.95,0,2.31,.89,4.09,2.67,5.34,1.78,1.25,3.91,1.87,6.4,1.87s5.07-.53,7.74-1.6,4.89-2.22,6.67-3.47c4.8-3.74,8.89-8.09,12.27-13.07,3.38-4.98,6.31-9.96,8.8-14.94,2.49-4.98,4.71-9.16,6.67-12.54,.53-.89,1.07-1.2,1.6-.93s.62,.85,.27,1.73c-3.56,7.47-7.47,15.12-11.74,22.94-4.27,7.83-9.7,14.05-16.27,18.68-2.31,1.6-4.85,2.93-7.6,4-2.76,1.07-5.65,1.6-8.67,1.6-4.98,0-9.03-1.33-12.14-4-3.11-2.67-4.67-6.76-4.67-12.27,0-9.6,4.44-21.7,13.34-36.28,9.07-14.94,13.61-24.37,13.61-28.28,0-3.02-1.69-4.54-5.07-4.54h-1.6c-3.91,0-9.25,4.49-16.01,13.47-6.76,8.98-14.94,22.19-24.54,39.62-2.31,3.91-4.67,8.4-7.07,13.47-2.4,5.07-4.94,10.72-7.6,16.94l-.53,.27c-2.13-1.07-4-1.6-5.6-1.6-2.31,0-4.27,1.42-5.87,4.27-1.43,3.02-2.76,4.8-4,5.34Z"/><path class="c" d="M460.77,726.81c-12.63,0-18.94-6.22-18.94-18.68,0-9.78,3.64-22.14,10.94-37.08,.35-.71,2.09-3.87,5.2-9.47,3.11-5.6,7.6-13.65,13.47-24.14h-13.87l-.53-.53,.27-1.6,.27-.27h15.21l19.21-33.62c1.6,.71,3.47,1.07,5.6,1.07,2.49,0,5.16-.89,8-2.67,3.02-1.6,5.07-3.38,6.14-5.34l.8,.27-24.01,40.29h18.41l.27,.27v1.6l-.53,.53h-19.48l-18.14,32.02c-10.85,19.03-16.27,33.71-16.27,44.02,0,7.3,2.84,10.94,8.54,10.94,8.89,0,17.88-4.98,26.95-14.94,2.49-2.67,5.42-6.67,8.8-12.01,3.38-5.34,6.22-10.4,8.54-15.21,.35-.89,.84-1.2,1.47-.93,.62,.27,.75,.85,.4,1.73-2.67,5.34-5.47,10.4-8.4,15.21-2.93,4.8-6.27,9.25-10,13.34-9.25,10.14-18.68,15.21-28.28,15.21Z"/><path class="c" d="M531.73,727.07c-10.67,0-16.01-4.71-16.01-14.14,0-7.47,2.93-16.01,8.8-25.61,1.96-3.38,7.38-10.94,16.27-22.68,5.87-7.82,8.8-13.34,8.8-16.54,0-3.02-2.49-4.54-7.47-4.54-3.38,0-7.07,.09-11.07,.27-4,.18-7.25,.36-9.74,.53-.53,2.85-1.33,6.14-2.4,9.87s-2.31,7.65-3.74,11.74c-.89,2.49-2.27,5.87-4.14,10.14s-4.31,8.8-7.34,13.61c-.53,.71-.98,1.07-1.33,1.07-.18,0-.27-.18-.27-.53,0-.89,.35-2.04,1.07-3.47,1.42-2.49,3.02-5.56,4.8-9.2,1.78-3.64,3.47-7.69,5.07-12.14,1.42-3.91,2.71-8.05,3.87-12.41,1.15-4.36,1.82-7.34,2-8.94-4.27-2.67-6.4-6.67-6.4-12.01,0-6.04,2.13-9.07,6.4-9.07,3.02,0,4.54,2.76,4.54,8.27,0,1.25-.18,2.76-.53,4.54-.36,1.78-.8,3.91-1.33,6.4,2.49-.18,6.44-.4,11.87-.67,5.42-.27,10.63-.4,15.61-.4,9.07,0,13.61,2.76,13.61,8.27,0,5.87-7.03,17.97-21.08,36.28-3.03,4.45-6.36,9.47-10,15.07-3.65,5.6-5.47,11.34-5.47,17.21,0,1.6,.35,3.11,1.07,4.54,.71,1.43,2.22,2.13,4.54,2.13,7.65,0,16.1-4.62,25.35-13.87,4.62-4.62,8.89-9.6,12.81-14.94,3.91-5.34,7.47-11.29,10.67-17.88,.71-1.42,1.33-2.13,1.87-2.13,.35,0,.53,.27,.53,.8,0,.89-.27,1.87-.8,2.93-3.03,6.23-6.67,12.23-10.94,18.01-4.27,5.78-8.98,11.25-14.14,16.41-8.72,8.72-17.17,13.07-25.35,13.07Z"/><path class="c" d="M557.61,789.77c-10.14,0-15.21-3.91-15.21-11.74,0-8.72,7.3-16.9,21.88-24.54,1.78-.89,4.67-1.96,8.67-3.2,4-1.25,9.03-2.76,15.07-4.54,4.27-1.07,8.09-2.09,11.47-3.07,3.38-.98,6.4-1.91,9.07-2.8,.89-2.49,2.04-5.47,3.47-8.94,1.42-3.47,2.84-7.42,4.27-11.87,.89-2.31,1.82-5.2,2.8-8.67,.98-3.47,2.27-7.51,3.87-12.14,1.6-4.62,3.69-9.69,6.27-15.21,2.58-5.51,5.64-11.29,9.2-17.34-1.78,2.13-3.87,4.94-6.27,8.4-2.4,3.47-5.11,7.52-8.14,12.14-8.54,13.16-14.32,21.52-17.34,25.08-8.72,10.67-16.63,16.01-23.74,16.01-4.63,0-8.45-1.51-11.47-4.54-2.85-3.38-4.27-7.29-4.27-11.74,0-8,2.93-17.07,8.8-27.21,.89-1.42,2.67-4.14,5.34-8.14s6.4-9.47,11.21-16.41c5.87-8.54,8.8-14.67,8.8-18.41,0-1.96-1.16-2.93-3.47-2.93-2.13,0-4.18,.71-6.14,2.13-2.13,1.43-3.38,3.11-3.74,5.07l-.53,.53h-.8l-.53-.27c.35-2.31,1.87-4.44,4.54-6.4,2.49-1.78,4.98-2.93,7.47-3.47,.89-.18,1.82-.31,2.8-.4,.98-.09,1.91-.13,2.8-.13,6.58,0,9.87,2.58,9.87,7.74,0,6.94-5.96,18.5-17.88,34.68-11.21,15.65-16.81,28.55-16.81,38.68,0,5.52,2.22,8.27,6.67,8.27,7.11,0,19.56-13.69,37.35-41.09,14.94-23.12,27.3-38.24,37.08-45.35,4.62-3.56,8.18-5.34,10.67-5.34,1.96,0,2.93,.98,2.93,2.93s-2.13,3.65-6.4,5.07c-9.78,2.85-17.97,9.87-24.54,21.08-2.49,4.45-4.71,9.25-6.67,14.41-1.96,5.16-3.38,10.76-4.27,16.81-.71,3.38-1.29,6.76-1.73,10.14-.45,3.38-.93,6.76-1.47,10.14-.71,3.38-1.43,6.67-2.13,9.87-.71,3.2-1.69,6.67-2.93,10.4,23.3-10.67,40.73-27.75,52.29-51.22,.53-.89,.98-1.33,1.33-1.33,.89,0,1.07,.71,.53,2.13-5.87,12.27-13.39,22.9-22.54,31.88-9.16,8.98-20.06,16.14-32.68,21.48-4.45,11.03-9.56,20.23-15.34,27.61-5.78,7.38-13.92,13.83-24.41,19.34-8,4.27-16.37,6.4-25.08,6.4Zm1.6-2.4c19.56,0,35.48-14.5,47.76-43.49-2.67,.89-5.69,1.91-9.07,3.07-3.38,1.15-7.12,2.27-11.21,3.33-2.31,.71-5.25,1.64-8.8,2.8-3.56,1.15-7.65,2.62-12.27,4.4-2.13,1.24-4.18,2.62-6.14,4.14-1.96,1.51-3.91,3.24-5.87,5.2-4.44,4.8-6.67,9.16-6.67,13.07,0,4.98,4.09,7.47,12.27,7.47Z"/><path class="c" d="M723.82,753.49c-.71-.36-1.43-.63-2.13-.8-.71-.18-1.51-.45-2.4-.8-9.43-3.2-16.19-8.27-20.28-15.21-14.59-2.13-26.32-7.38-35.22-15.74-9.25-9.07-13.87-20.9-13.87-35.48,0-19.56,7.11-36.46,21.34-50.69,14.05-14.05,30.95-21.08,50.69-21.08,13.87,0,24.81,3.65,32.82,10.94,3.91-3.02,8.76-6.8,14.54-11.34,5.78-4.54,12.49-9.83,20.14-15.87v-5.07c0-22.59,5.24-33.88,15.74-33.88,2.49,0,4.71,.98,6.67,2.93,2.13,1.78,3.2,3.91,3.2,6.4,0,7.12-7.2,16.99-21.61,29.61,.35,2.49,1.15,6.27,2.4,11.34,1.24,5.07,3.02,11.34,5.34,18.81,3.74,12.45,5.6,22.77,5.6,30.95,0,23.12-10.32,42.42-30.95,57.89-19.21,14.05-40.64,21.08-64.3,21.08-1.43,0-2.93-.05-4.54-.13-1.6-.09-3.11-.23-4.54-.4,3.56,5.87,8.98,10.05,16.27,12.54,1.6,.71,2.76,1.07,3.47,1.07,.53,0,1.6-.27,3.2-.8,1.42-.53,2.4-.8,2.93-.8,1.07,0,1.6,.53,1.6,1.6,0,1.96-2.05,2.93-6.14,2.93Zm-26.41-20.81c-1.6-3.74-2.4-8.09-2.4-13.07,0-9.78,2.67-21.08,8-33.88-4.27-4.09-6.4-9.07-6.4-14.94,0-2.13,.53-4.62,1.6-7.47,1.42-3.74,2.84-5.6,4.27-5.6,.35,0,.71,.18,1.07,.53-.36,1.07-.8,1.69-1.33,1.87h.27c-2.49,3.56-3.74,7.3-3.74,11.21,0,4.63,1.69,8.72,5.07,12.27,8-17.96,23.48-36.37,46.42-55.23-7.83-7.29-17.7-10.94-29.61-10.94-16.72,0-31.93,7.47-45.62,22.41-13.34,14.41-20.01,30.15-20.01,47.22,0,11.92,4.09,22.32,12.27,31.21,4.09,4.45,8.62,7.87,13.61,10.27,4.98,2.4,10.49,3.78,16.54,4.14Zm2.93,0c10.85,0,22.5-3.2,34.95-9.6,5.51-2.84,10.81-6,15.87-9.47s9.83-7.34,14.27-11.61c6.58-6.22,11.03-11.83,13.34-16.81,8.71-16.9,13.07-34.32,13.07-52.29,0,1.25-.18-.8-.53-6.14-.36-5.34-.89-14.05-1.6-26.15-3.74,2.85-8.32,6.45-13.74,10.81-5.43,4.36-11.78,9.47-19.08,15.34,6.04,6.05,9.07,13.52,9.07,22.41,0,11.92-4.27,22.06-12.81,30.41-8.72,8.54-19.03,12.81-30.95,12.81-6.76,0-12.36-1.51-16.81-4.54-5.16,11.74-7.74,21.97-7.74,30.68,0,2.67,.27,5.2,.8,7.6,.53,2.4,1.15,4.58,1.87,6.54Zm20.81-42.15c9.6,0,18.5-4.36,26.68-13.07,8.18-8.71,12.27-17.78,12.27-27.21,0-7.11-2.58-13.69-7.74-19.74-11.03,9.25-20.37,18.54-28.01,27.88-7.65,9.34-13.61,18.54-17.88,27.61,4.09,3.03,8.98,4.54,14.67,4.54Zm71.77-96.31c13.16-11.56,19.74-20.81,19.74-27.75,0-3.56-2.31-5.34-6.94-5.34-8.72,0-13.07,8.54-13.07,25.61v3.6c0,1.16,.09,2.45,.27,3.87Z"/><path class="c" d="M838.27,728.67c-11.74,0-17.61-6.49-17.61-19.48,0-9.43,2.76-19.38,8.27-29.88l20.01-39.22h.8c.53,.71,1.6,1.07,3.2,1.07,3.38,0,7.82-2.04,13.34-6.14l.53,.53-22.68,44.02c-9.43,18.14-14.14,30.77-14.14,37.88,0,3.2,.89,5.43,2.67,6.67,1.78,1.25,3.82,1.87,6.14,1.87,2.49,0,4.94-.53,7.34-1.6s4.49-2.22,6.27-3.47c4.8-3.74,8.85-8.05,12.14-12.94,3.29-4.89,6.18-9.83,8.67-14.81,2.49-4.98,4.71-9.16,6.67-12.54,.53-.89,1.07-1.2,1.6-.93s.62,.85,.27,1.73c-3.56,7.47-7.47,15.12-11.74,22.94-4.27,7.83-9.7,14.05-16.27,18.68-2.31,1.6-4.76,2.93-7.34,4-2.58,1.07-5.29,1.6-8.14,1.6Zm31.48-104.05c-5.69,0-8.54-2.76-8.54-8.27,0-6.04,2.76-9.07,8.27-9.07s8.54,2.76,8.54,8.27c0,6.05-2.76,9.07-8.27,9.07Z"/><path class="c" d="M891.63,727.34c-6.4,0-10.94-2.67-13.61-8-2.67-5.34-4-11.21-4-17.61s.98-12.27,2.93-17.07c2.49-6.58,6.14-13.29,10.94-20.14,4.8-6.84,10.58-12.63,17.34-17.34,6.76-4.71,14.14-7.07,22.14-7.07,8.89,0,13.34,5.16,13.34,15.47,0,5.16-1.07,10.67-3.2,16.54l43.49-85.37h.53c.71,.71,1.96,1.07,3.74,1.07,3.74,0,8.18-2.04,13.34-6.14l.53,.53-40.02,76.57c-15.47,29.71-23.21,49.18-23.21,58.43,0,4.8,1.96,7.2,5.87,7.2,2.13,0,4.71-.8,7.74-2.4,3.02-1.6,6.22-4.27,9.6-8,4.27-4.98,7.96-9.74,11.07-14.27,3.11-4.54,6.71-10.71,10.81-18.54,.53-.89,1.07-1.33,1.6-1.33,1.07,0,1.07,.89,0,2.67-3.2,6.05-6.63,12.05-10.27,18.01-3.65,5.96-8.05,11.52-13.21,16.67-6.4,6.4-12.36,9.6-17.88,9.6-4.45,0-8.14-1.24-11.07-3.74-2.93-2.49-4.4-6.76-4.4-12.81,0-5.69,.98-12.01,2.93-18.94-12.45,24.01-24.81,36.02-37.08,36.02Zm1.87-2.4c4.8,0,10.49-3.56,17.07-10.67,6.58-7.11,13.43-17.43,20.54-30.95,.71-1.42,1.64-3.69,2.8-6.8,1.15-3.11,2.22-6.58,3.2-10.4,.98-3.82,1.47-7.42,1.47-10.81,0-3.56-.71-6.49-2.13-8.8-1.43-2.31-3.91-3.47-7.47-3.47s-6.98,1.2-10.81,3.6c-3.83,2.4-7.78,6.45-11.87,12.14-6.76,9.07-11.65,17.88-14.67,26.41-.36,1.07-.98,3.16-1.87,6.27-.89,3.11-1.69,6.58-2.4,10.4-.71,3.83-1.07,7.52-1.07,11.07s.53,6.23,1.6,8.54c1.07,2.31,2.93,3.47,5.6,3.47Z"/><path class="c" d="M998.87,728.67c-8.72,0-14.77-2.45-18.14-7.34-3.38-4.89-5.07-11.78-5.07-20.68,0-12.81,5.34-26.15,16.01-40.02,11.38-14.58,23.21-21.88,35.48-21.88,9.07,0,13.61,3.11,13.61,9.34,0,7.65-4.18,15.65-12.54,24.01-11.92,12.1-24.46,18.14-37.62,18.14-2.13,5.52-3.2,11.03-3.2,16.54,0,6.05,1.15,10.76,3.47,14.14,2.31,3.38,5.69,5.07,10.14,5.07s9.43-1.29,14.41-3.87c4.98-2.58,9.25-5.64,12.81-9.2,3.02-3.02,6.44-7.16,10.27-12.41,3.82-5.24,7.69-11.69,11.61-19.34,.53-.89,1.07-1.33,1.6-1.33,1.07,0,1.07,.89,0,2.67-3.03,6.05-6.27,11.83-9.74,17.34-3.47,5.52-8.05,10.85-13.74,16.01-3.38,3.38-7.65,6.36-12.81,8.94-5.16,2.58-10.67,3.87-16.54,3.87Zm-8-40.29c9.78,0,20.72-5.24,32.82-15.74v-.27c3.38-2.84,6.58-6.76,9.6-11.74,3.56-5.51,5.34-10.23,5.34-14.14,0-2.84-2.13-4.27-6.4-4.27-6.76,0-14.94,6.05-24.54,18.14-4.45,5.34-8,10.32-10.67,14.94-2.67,4.63-4.71,8.98-6.14,13.07Z"/></g><g><path class="c" d="M186.55,936.77v-5.63c4.32-.11,7.28-1.11,8.88-2.99,1.59-1.88,2.48-4.44,2.65-7.68,.17-3.24,.25-6.97,.25-11.18v-71.71c0-3.07,.06-5.72,.17-7.94s.23-4.07,.34-5.55c-2.05,.11-4.1,.23-6.14,.34-2.05,.11-4.1,.23-6.15,.34v-7.51c6.26-.11,12.55-.2,18.87-.26,6.32-.06,12.89-.09,19.72-.09,13.2,0,23.53,2.33,30.99,7,7.45,4.67,11.07,12.07,10.84,22.2,0,3.64-1.05,7.29-3.16,10.93-2.11,3.64-5.24,6.86-9.39,9.65-4.16,2.79-9.37,4.75-15.62,5.89v.34c12.52,0,21.97,2.88,28.34,8.62,6.37,5.75,9.56,13.01,9.56,21.77,0,6.94-1.77,12.92-5.29,17.93-3.53,5.01-8.31,8.85-14.34,11.53-6.04,2.68-12.92,4.01-20.66,4.01h-49.86Zm26.12-6.83c1.82,.11,4.01,.2,6.57,.26,2.56,.06,4.95,.09,7.17,.09h4.36c8.76,0,15.85-2.19,21.26-6.57,5.41-4.38,8.11-10.84,8.11-19.38,0-6.94-1.37-12.35-4.1-16.22-2.73-3.87-6.32-6.6-10.76-8.2-4.44-1.59-9.28-2.39-14.51-2.39-3.42,0-6.52,.03-9.31,.08-2.79,.06-5.55,.2-8.28,.43v38.59c0,3.07-.03,5.69-.09,7.85-.06,2.16-.2,3.99-.43,5.46Zm.51-58.57l12.46-.34c6.49-.11,11.61-1.45,15.37-4.01,3.76-2.56,6.46-5.78,8.11-9.65,1.65-3.87,2.42-7.91,2.31-12.12-.12-6.15-1.51-10.81-4.19-14-2.68-3.19-5.95-5.35-9.82-6.49-3.87-1.14-7.68-1.71-11.44-1.71s-6.55,.51-8.37,1.54c-1.82,1.02-3.02,2.73-3.59,5.12-.57,2.39-.85,5.69-.85,9.9v31.76Z"/><path class="c" d="M291.22,936.77v-5.63c4.32-.23,7.28-1.22,8.88-2.99,1.59-1.76,2.48-4.21,2.65-7.34,.17-3.13,.25-6.69,.25-10.67v-73.76c0-2.28,.06-4.47,.17-6.57,.11-2.11,.23-4.01,.34-5.72-2.05,.11-4.1,.23-6.14,.34-2.05,.11-4.1,.23-6.15,.34v-7.51h38.42v5.63c-4.21,.11-7.15,1.08-8.79,2.9-1.65,1.82-2.56,4.27-2.73,7.34s-.25,6.66-.25,10.76v73.25c0,3.07-.03,5.69-.09,7.85-.06,2.16-.2,3.99-.43,5.46l31.93-.51c7.17-.11,12.61-2.39,16.31-6.83,3.7-4.44,5.55-11.67,5.55-21.69h5.81l-1.03,35.34h-84.69Z"/><path class="c" d="M445.75,939.5c-10.82,0-20.09-1.82-27.83-5.46-7.74-3.64-14.03-8.51-18.87-14.6-4.84-6.09-8.4-12.83-10.67-20.23-2.28-7.4-3.41-14.8-3.41-22.2s1.2-14.43,3.59-21.77c2.39-7.34,6.06-14.09,11.01-20.23,4.95-6.15,11.16-11.1,18.61-14.85,7.45-3.76,16.19-5.63,26.21-5.63s19.52,1.88,27.15,5.63c7.62,3.76,13.91,8.74,18.87,14.94,4.95,6.21,8.65,12.95,11.1,20.23,2.45,7.29,3.67,14.51,3.67,21.69s-1.2,14.26-3.59,21.6c-2.39,7.34-6.06,14.12-11.01,20.32-4.95,6.21-11.13,11.18-18.53,14.94-7.4,3.76-16.17,5.63-26.3,5.63Zm.34-7c7.05,0,13.2-1.51,18.44-4.53,5.24-3.01,9.59-7.06,13.06-12.12,3.47-5.06,6.09-10.7,7.85-16.9,1.76-6.2,2.65-12.44,2.65-18.7,0-7.06-.97-14.06-2.91-21-1.93-6.94-4.78-13.26-8.54-18.95-3.76-5.69-8.4-10.27-13.91-13.75-5.52-3.47-11.81-5.21-18.87-5.21s-13.23,1.54-18.53,4.61-9.68,7.15-13.15,12.21c-3.47,5.07-6.09,10.7-7.85,16.9-1.77,6.21-2.65,12.49-2.65,18.87s.88,12.81,2.65,19.64c1.76,6.83,4.46,13.21,8.11,19.12,3.64,5.92,8.25,10.7,13.83,14.34,5.58,3.64,12.18,5.46,19.81,5.46Z"/><path class="c" d="M581.32,939.5c-10.81,0-20.09-1.82-27.83-5.46-7.75-3.64-14.03-8.51-18.87-14.6-4.84-6.09-8.4-12.83-10.67-20.23-2.28-7.4-3.42-14.8-3.42-22.2s1.2-14.43,3.59-21.77c2.39-7.34,6.06-14.09,11.01-20.23,4.95-6.15,11.16-11.1,18.61-14.85,7.45-3.76,16.19-5.63,26.21-5.63s19.52,1.88,27.15,5.63c7.62,3.76,13.91,8.74,18.87,14.94,4.95,6.21,8.65,12.95,11.1,20.23,2.44,7.29,3.67,14.51,3.67,21.69s-1.19,14.26-3.59,21.6c-2.39,7.34-6.06,14.12-11.01,20.32-4.95,6.21-11.13,11.18-18.53,14.94-7.4,3.76-16.17,5.63-26.3,5.63Zm.34-7c7.06,0,13.2-1.51,18.44-4.53,5.23-3.01,9.59-7.06,13.06-12.12,3.47-5.06,6.09-10.7,7.85-16.9,1.76-6.2,2.65-12.44,2.65-18.7,0-7.06-.97-14.06-2.9-21-1.94-6.94-4.78-13.26-8.54-18.95-3.76-5.69-8.4-10.27-13.91-13.75-5.52-3.47-11.81-5.21-18.87-5.21s-13.24,1.54-18.53,4.61c-5.29,3.07-9.68,7.15-13.14,12.21-3.48,5.07-6.09,10.7-7.86,16.9-1.76,6.21-2.65,12.49-2.65,18.87s.88,12.81,2.65,19.64c1.76,6.83,4.47,13.21,8.11,19.12,3.64,5.92,8.25,10.7,13.83,14.34,5.57,3.64,12.18,5.46,19.81,5.46Z"/><path class="c" d="M721.16,938.47c-5.01-11.38-10.08-22.74-15.19-34.06-5.12-11.33-10.13-22.79-15.03-34.4-1.6-3.64-3.16-7.31-4.69-11.01-1.54-3.7-3.02-7.43-4.44-11.18-1.43-3.76-2.88-7.51-4.36-11.27,0,1.25-.03,2.51-.08,3.76-.06,1.25-.09,2.51-.09,3.76-.11,4.1-.25,9.02-.43,14.77-.17,5.75-.37,11.9-.6,18.44-.23,6.55-.4,13.09-.51,19.64-.12,6.55-.23,12.72-.34,18.53-.12,2.51-.2,5.01-.26,7.51-.06,2.51-.2,4.84-.43,7,2.16-.11,4.29-.23,6.4-.34,2.11-.11,4.24-.23,6.4-.34v7.51h-32.62v-5.63c3.53-.11,6.12-.88,7.77-2.31,1.65-1.42,2.7-3.33,3.16-5.72,.45-2.39,.74-4.95,.85-7.68l3.24-77.86c.11-2.28,.2-4.55,.25-6.83,.06-2.28,.14-4.49,.26-6.66-2.05,.11-4.1,.2-6.15,.26-2.05,.06-4.1,.14-6.14,.26v-7.34h26.12l29.37,67.79c1.48,3.42,2.93,6.83,4.35,10.25,1.42,3.42,2.91,6.83,4.44,10.24,1.54,3.42,3.04,6.89,4.53,10.42h.34c1.25-3.07,2.73-6.74,4.44-11.01,1.71-4.27,3.13-7.94,4.27-11.01,5.01-12.52,10.22-25.07,15.62-37.65,5.41-12.58,10.73-25.58,15.97-39.02h25.27v5.63c-2.85-.11-5.18,.43-7,1.62-1.82,1.2-3.13,3.16-3.93,5.89-.8,2.73-1.08,6.43-.85,11.1l4.44,77.69c.23,1.94,.34,3.82,.34,5.63v4.95c2.05-.11,4.12-.2,6.23-.26,2.11-.06,4.18-.14,6.23-.26v7.51h-38.25v-5.63c3.53-.11,6.14-.97,7.85-2.56,1.71-1.59,2.76-3.87,3.16-6.83,.4-2.96,.48-6.6,.25-10.93l-3.41-56.35c-.12-1.82-.23-3.64-.34-5.46-.11-1.82-.23-3.64-.34-5.46-.11-1.82-.23-3.64-.34-5.46-.34,.8-.71,1.65-1.11,2.56-.4,.91-.77,1.88-1.11,2.9l-38.42,94.94h-5.12Z"/><path class="c" d="M880.64,853.44c-.34-5.46-1.65-10.64-3.93-15.54-2.28-4.89-5.58-8.88-9.9-11.95-4.33-3.07-9.85-4.61-16.57-4.61-7.06,0-12.46,1.99-16.22,5.98-3.76,3.99-5.63,8.65-5.63,14,0,4.78,1.36,8.79,4.1,12.04,2.73,3.24,6.29,6.09,10.67,8.54,4.38,2.45,9.02,4.81,13.91,7.09,4.32,1.94,8.65,4.01,12.98,6.23,4.32,2.22,8.25,4.75,11.78,7.6,3.53,2.85,6.34,6.23,8.45,10.16,2.11,3.93,3.16,8.62,3.16,14.09,0,6.26-1.56,11.84-4.69,16.73-3.13,4.9-7.66,8.74-13.57,11.53-5.92,2.79-13.15,4.18-21.69,4.18-5.12,0-10.42-.74-15.88-2.22-5.46-1.48-10.3-3.64-14.51-6.49l.85,7.34h-8.88l-1.03-36.37h6.66c.57,10.02,4.04,17.62,10.42,22.79,6.37,5.18,14.06,7.77,23.05,7.77,4.44,0,8.54-.82,12.29-2.48,3.76-1.65,6.74-4.07,8.96-7.26,2.22-3.18,3.33-7.06,3.33-11.61,0-5.12-1.37-9.39-4.1-12.81-2.73-3.42-6.26-6.37-10.59-8.88-4.33-2.5-8.94-4.89-13.83-7.17-4.33-1.93-8.6-3.98-12.81-6.15-4.21-2.16-8.05-4.64-11.52-7.43-3.48-2.79-6.26-6.12-8.37-9.99-2.11-3.87-3.16-8.54-3.16-14,0-2.96,.51-6.15,1.53-9.56,1.03-3.41,2.82-6.69,5.38-9.82,2.56-3.13,6.09-5.69,10.58-7.68,4.5-1.99,10.22-2.99,17.16-2.99,4.32,0,9.19,.6,14.6,1.79,5.4,1.2,10.44,3.5,15.11,6.91l-.68-7.34h8.71v37.56h-6.15Z"/></g><g><path class="c" d="M374.54,1003.39c2.35,0,4.29,.27,5.82,.82,1.54,.54,2.69,1.34,3.47,2.39,.77,1.05,1.16,2.35,1.16,3.9,0,.94-.18,1.93-.54,2.96-.36,1.03-.99,1.98-1.89,2.87-.89,.88-2.14,1.6-3.74,2.16s-3.64,.83-6.13,.83h-.62c-.29,0-.56-.01-.8-.04l-.29,5.26c-.03,.65-.06,1.22-.11,1.69-.05,.47-.1,.86-.15,1.18,.39-.02,.76-.05,1.13-.07s.73-.04,1.11-.05c.38-.01,.74-.03,1.11-.06l-.07,1.63h-8.74l.07-1.2c.92-.05,1.56-.26,1.92-.63s.58-.9,.65-1.56c.07-.66,.12-1.42,.14-2.27l.84-15.68c.05-.48,.09-.95,.13-1.4,.04-.45,.08-.85,.13-1.22-.44,.03-.88,.05-1.32,.07s-.89,.05-1.32,.07l.11-1.6c1.28-.02,2.58-.04,3.88-.05,1.31-.01,2.66-.02,4.06-.02Zm-.14,1.42c-.75,0-1.31,.16-1.67,.49s-.59,.8-.69,1.42-.17,1.36-.22,2.23l-.47,8.82c.46,.05,.86,.08,1.2,.09,.34,.01,.73,.02,1.16,.02,1.38,0,2.65-.27,3.83-.8,1.17-.53,2.12-1.31,2.85-2.32,.73-1.02,1.13-2.23,1.2-3.63,.05-1.14-.08-2.11-.4-2.92-.31-.81-.79-1.46-1.43-1.96-.64-.5-1.42-.86-2.32-1.09-.91-.23-1.92-.34-3.03-.34Z"/><path class="c" d="M389.09,1028.87c-.02-.17-.04-.32-.04-.45v-.49c0-.41,.01-.9,.04-1.47,.03-.57,.08-1.32,.16-2.27,.08-.94,.21-2.18,.38-3.7,.17-1.57,.3-2.76,.4-3.56,.1-.8,.17-1.39,.22-1.76s.07-.68,.07-.93c.03-.48,0-.95-.09-1.42-.09-.46-.38-.69-.89-.69-.39,0-.83,.27-1.34,.8-.51,.53-.94,1.44-1.31,2.72l-1.02-.22c.07-.44,.22-.94,.45-1.51,.23-.57,.54-1.13,.93-1.69,.39-.56,.86-1.02,1.42-1.38s1.2-.54,1.92-.54c1.09,0,1.81,.38,2.18,1.12,.36,.75,.52,1.75,.47,3.01-.03,.53-.09,1.12-.2,1.76-.11,.64-.23,1.31-.34,2.01h.11c.7-2.1,1.43-3.72,2.19-4.86s1.54-1.93,2.32-2.38c.79-.45,1.57-.67,2.34-.67,.73,0,1.33,.19,1.81,.56s.73,.89,.73,1.54c0,.44-.15,.83-.45,1.2s-.71,.55-1.22,.55c-.44,0-.81-.13-1.13-.4-.31-.27-.5-.64-.54-1.13-.68-.14-1.34,.07-1.98,.65-.64,.58-1.25,1.41-1.81,2.49-.57,1.08-1.07,2.28-1.49,3.61-.42,1.33-.76,2.68-1,4.06s-.36,2.66-.36,3.85c0,.36,0,.63,.02,.82s.03,.43,.05,.74h-3.01Z"/><path class="c" d="M411.81,1010.32c.87,0,1.69,.13,2.47,.4,.77,.27,1.4,.7,1.89,1.31,.48,.61,.73,1.43,.73,2.47s-.34,1.85-1.02,2.58c-.68,.73-1.56,1.32-2.65,1.8-1.09,.47-2.25,.85-3.48,1.14-1.23,.29-2.42,.5-3.56,.62,0,1.5,.15,2.76,.45,3.77,.3,1.02,.76,1.78,1.36,2.29s1.38,.76,2.32,.76c.7,0,1.41-.16,2.12-.47,.71-.31,1.4-.79,2.05-1.43,.65-.64,1.25-1.47,1.78-2.49l1.2,.69c-.68,1.26-1.4,2.3-2.18,3.12-.77,.82-1.62,1.43-2.54,1.81-.92,.39-1.94,.58-3.05,.58-2.3,0-3.99-.72-5.08-2.16-1.09-1.44-1.63-3.33-1.63-5.68,0-1.4,.18-2.77,.54-4.1,.36-1.33,.91-2.52,1.63-3.57,.73-1.05,1.64-1.89,2.76-2.5s2.41-.93,3.88-.93Zm-.51,1.23c-1.11,0-2.03,.38-2.74,1.12-.71,.75-1.26,1.72-1.63,2.9-.38,1.19-.61,2.43-.71,3.74,1.28-.17,2.5-.47,3.66-.91s2.12-1,2.87-1.69c.75-.69,1.12-1.49,1.12-2.41,0-.77-.21-1.43-.63-1.96-.43-.53-1.07-.8-1.94-.8Z"/><path class="c" d="M426.76,1005.61l-.65,5.12h5.77l-.11,1.38-5.8,.07c-.1,1.02-.21,2.06-.35,3.14-.13,1.08-.25,2.15-.34,3.21-.1,1.07-.18,2.09-.25,3.07-.07,.98-.11,1.87-.11,2.67,0,.46,.03,.94,.09,1.43s.21,.91,.45,1.23c.24,.33,.63,.49,1.16,.49,.24,0,.54-.05,.89-.14,.35-.1,.74-.33,1.18-.69,.44-.36,.88-.93,1.34-1.71l.94,.62c-.7,1.23-1.46,2.17-2.27,2.81-.81,.64-1.8,.96-2.96,.96-.94,0-1.69-.2-2.23-.6-.55-.4-.94-.93-1.18-1.58s-.36-1.35-.36-2.1c0-.92,.04-2.04,.11-3.36,.07-1.32,.18-2.78,.33-4.39,.14-1.61,.31-3.28,.51-5.03l-3.23,.04,.11-1.52c1.67,0,2.9-.45,3.7-1.34,.8-.9,1.43-2.15,1.89-3.77h1.38Z"/><path class="c" d="M439.96,1005.61l-.65,5.12h5.77l-.11,1.38-5.8,.07c-.1,1.02-.21,2.06-.35,3.14-.13,1.08-.25,2.15-.34,3.21-.1,1.07-.18,2.09-.25,3.07-.07,.98-.11,1.87-.11,2.67,0,.46,.03,.94,.09,1.43s.21,.91,.45,1.23c.24,.33,.63,.49,1.16,.49,.24,0,.54-.05,.89-.14,.35-.1,.74-.33,1.18-.69,.44-.36,.88-.93,1.34-1.71l.94,.62c-.7,1.23-1.46,2.17-2.27,2.81-.81,.64-1.8,.96-2.96,.96-.94,0-1.69-.2-2.23-.6-.55-.4-.94-.93-1.18-1.58s-.36-1.35-.36-2.1c0-.92,.04-2.04,.11-3.36,.07-1.32,.18-2.78,.33-4.39,.14-1.61,.31-3.28,.51-5.03l-3.23,.04,.11-1.52c1.67,0,2.9-.45,3.7-1.34,.8-.9,1.43-2.15,1.89-3.77h1.38Z"/><path class="c" d="M447.62,1038.7c-.82-.05-1.49-.28-1.99-.71-.51-.42-.76-.95-.76-1.58,0-.56,.17-.97,.51-1.25,.34-.28,.66-.42,.98-.42,1.09,0,1.61,.63,1.56,1.89,.15,.07,.28,.13,.4,.18,.12,.05,.25,.07,.4,.07,.53,.02,1.08-.17,1.65-.58,.57-.41,1.11-.93,1.63-1.54,.52-.62,.98-1.22,1.38-1.81,.4-.59,.7-1.05,.89-1.36-.22-1.4-.47-2.85-.76-4.34-.29-1.49-.62-2.98-1-4.46-.38-1.49-.79-2.93-1.23-4.32-.45-1.39-.93-2.7-1.43-3.94-.17-.41-.39-.83-.65-1.27-.27-.44-.64-.63-1.13-.58-.46,.05-.8,.41-1.03,1.09-.23,.68-.3,1.57-.2,2.68l-1.16,.14c-.07-.65-.08-1.34-.02-2.07,.06-.73,.21-1.41,.45-2.05s.59-1.16,1.05-1.56c.46-.4,1.06-.6,1.81-.6,.82,0,1.49,.22,2.01,.65,.52,.44,.94,.97,1.27,1.6,.33,.63,.6,1.25,.81,1.85,.46,1.23,.91,2.65,1.34,4.25,.44,1.6,.82,3.22,1.14,4.88,.33,1.66,.57,3.2,.74,4.63h.07c.68-1.18,1.33-2.49,1.96-3.92,.63-1.43,1.15-2.88,1.56-4.37,.41-1.49,.62-2.88,.62-4.19,0-.6-.05-1.14-.16-1.6-.11-.46-.24-.79-.38-.98-.1,.07-.23,.13-.38,.16-.16,.04-.33,.05-.53,.05-.44,0-.79-.14-1.05-.42-.27-.28-.4-.61-.4-1,0-.53,.18-.93,.53-1.2,.35-.27,.74-.4,1.18-.4,.75,0,1.33,.23,1.74,.69s.71,1.04,.89,1.74,.27,1.44,.27,2.21c0,1.6-.23,3.23-.69,4.9-.46,1.67-1.06,3.31-1.79,4.93s-1.52,3.18-2.34,4.68c-1.21,2.18-2.37,3.95-3.47,5.33-1.1,1.38-2.17,2.38-3.21,2.99s-2.07,.91-3.08,.89Z"/><path class="c" d="M467.36,1024.87c.58,0,1.05,.22,1.42,.67,.36,.45,.52,.99,.47,1.62-.03,.65-.25,1.2-.69,1.63-.44,.44-.93,.65-1.49,.65s-1.03-.22-1.42-.65c-.39-.43-.57-.98-.54-1.63,.05-.63,.3-1.17,.74-1.62,.45-.45,.95-.67,1.51-.67Z"/><path class="c" d="M475.77,1024.87c.58,0,1.05,.22,1.42,.67,.36,.45,.52,.99,.47,1.62-.03,.65-.25,1.2-.69,1.63-.44,.44-.93,.65-1.49,.65s-1.03-.22-1.42-.65c-.39-.43-.57-.98-.54-1.63,.05-.63,.3-1.17,.74-1.62,.45-.45,.95-.67,1.51-.67Z"/><path class="c" d="M484.19,1024.87c.58,0,1.05,.22,1.42,.67,.36,.45,.52,.99,.47,1.62-.03,.65-.25,1.2-.69,1.63-.44,.44-.93,.65-1.49,.65s-1.03-.22-1.42-.65c-.39-.43-.57-.98-.54-1.63,.05-.63,.3-1.17,.74-1.62,.45-.45,.95-.67,1.51-.67Z"/><path class="c" d="M495.77,1029.26l-5.48-19.34c-.36-1.28-.65-2.29-.85-3.03-.2-.74-.34-1.37-.42-1.91-.34,.02-.68,.04-1.02,.04s-.68,.01-1.02,.04l.07-1.6h8.71l-.07,1.2c-1.4,.07-2.26,.39-2.58,.94s-.31,1.56,0,3.01l2.32,8.45c.29,1.09,.58,2.12,.87,3.1,.29,.98,.59,2.04,.91,3.17h.07c.15-.41,.31-.85,.49-1.32,.18-.47,.36-.94,.53-1.4,.17-.46,.33-.89,.47-1.29s.27-.72,.36-.96l5.52-14.99h.98l3.77,13.68c.31,1.09,.62,2.18,.92,3.27,.3,1.09,.6,2.2,.89,3.34h.07c.26-.7,.56-1.46,.89-2.27,.33-.81,.65-1.64,.96-2.49,.65-1.81,1.21-3.33,1.67-4.54,.46-1.21,.84-2.21,1.14-3.01,.3-.8,.57-1.49,.8-2.07,.23-.58,.45-1.15,.67-1.7,.14-.41,.33-.85,.54-1.32,.22-.47,.45-.91,.69-1.32-.49,.03-.97,.04-1.45,.05-.48,.01-.97,.03-1.45,.06l.07-1.6h7.37l-.07,1.2c-.6,.07-1.12,.19-1.54,.34-.42,.16-.79,.42-1.11,.78s-.64,.88-.96,1.56c-.33,.68-.71,1.57-1.14,2.68l-7.55,19.23h-.94l-4.14-14.3c-.36-1.26-.65-2.29-.85-3.08-.2-.8-.4-1.56-.6-2.29h-.15c-.31,.8-.62,1.6-.91,2.39s-.59,1.6-.91,2.39l-5.62,14.88h-.94Z"/><path class="c" d="M526.57,1010.32c1.02,0,1.78,.34,2.29,1.03,.51,.69,.76,1.6,.76,2.74,0,.73-.07,1.55-.2,2.49-.13,.93-.3,1.93-.49,2.99-.19,1.07-.36,2.14-.49,3.21-.13,1.08-.2,2.12-.2,3.14,0,.48,.09,.86,.27,1.12,.18,.27,.46,.4,.85,.4,.41,0,.86-.27,1.36-.8,.5-.53,.93-1.44,1.29-2.72l1.02,.22c-.1,.51-.26,1.06-.49,1.65-.23,.59-.53,1.15-.89,1.67s-.8,.95-1.32,1.29c-.52,.34-1.12,.51-1.8,.51-1.11,0-1.93-.29-2.47-.87-.53-.58-.8-1.43-.8-2.54s.07-2.1,.22-3.1,.31-2,.49-2.98,.34-1.97,.49-2.96c.15-.99,.22-2.01,.22-3.05,0-.31-.07-.67-.2-1.05-.13-.39-.41-.58-.82-.58-.39,0-.83,.27-1.34,.8-.51,.53-.94,1.44-1.31,2.72l-1.02-.22c.07-.44,.22-.94,.44-1.51,.22-.57,.51-1.13,.89-1.69,.38-.56,.83-1.02,1.36-1.38s1.16-.54,1.89-.54Zm2.07-7.84c.55,0,1.02,.19,1.38,.56,.36,.38,.54,.88,.54,1.51s-.19,1.1-.58,1.47c-.39,.38-.85,.56-1.38,.56s-.99-.19-1.36-.56c-.38-.37-.56-.86-.56-1.47s.19-1.13,.58-1.51c.39-.37,.85-.56,1.38-.56Z"/><path class="c" d="M541.27,1001.47c-.07,.6-.18,1.28-.31,2.03-.13,.75-.25,1.49-.36,2.21-.11,.73-.2,1.37-.27,1.92-.15,1.02-.29,2.17-.44,3.47-.15,1.29-.29,2.64-.44,4.03-.15,1.39-.27,2.75-.38,4.08-.11,1.33-.2,2.55-.27,3.65-.07,1.1-.11,2-.11,2.7,0,.46,.05,.89,.15,1.29,.1,.4,.38,.6,.83,.6,.41,0,.86-.26,1.36-.78s.93-1.43,1.29-2.74l1.02,.25c-.07,.41-.23,.91-.45,1.49-.23,.58-.54,1.14-.93,1.69s-.85,1-1.4,1.36-1.18,.54-1.91,.54c-.99,0-1.72-.25-2.18-.74-.46-.5-.7-1.23-.73-2.19-.02-.6,0-1.5,.09-2.69,.08-1.18,.19-2.53,.33-4.04,.13-1.51,.29-3.1,.45-4.75,.17-1.66,.35-3.27,.54-4.84s.38-3,.54-4.28c.12-.65,.2-1.08,.24-1.29,.04-.21,.07-.43,.09-.67-.44,.03-.86,.05-1.29,.07s-.85,.05-1.29,.07l.18-1.45c1.07,0,1.89-.05,2.49-.14,.59-.1,1.04-.22,1.36-.36,.31-.15,.57-.3,.76-.47h1.02Z"/><path class="c" d="M550.05,1029.26c-1.11,0-2.03-.31-2.76-.93-.73-.62-1.27-1.45-1.62-2.5s-.53-2.21-.53-3.47c0-2.37,.39-4.46,1.18-6.26,.79-1.8,1.97-3.22,3.54-4.24,1.57-1.03,3.52-1.54,5.84-1.54,.36,0,.71,.01,1.05,.04,.34,.02,.66,.06,.98,.11,.1-.87,.2-1.75,.31-2.63,.11-.88,.22-1.69,.33-2.43,.11-.74,.21-1.29,.31-1.65-.44,.03-.88,.05-1.33,.07s-.89,.05-1.32,.07l.15-1.45c1.06,0,1.89-.05,2.48-.14,.59-.1,1.05-.22,1.36-.36,.31-.15,.57-.3,.76-.47h1.05c-.22,1.31-.44,2.9-.67,4.77-.23,1.87-.51,4.25-.85,7.13-.17,1.55-.33,3.09-.49,4.63-.16,1.54-.29,2.96-.4,4.26-.11,1.31-.16,2.39-.16,3.27,0,.46,.05,.9,.15,1.31,.1,.41,.38,.62,.83,.62,.41,0,.86-.27,1.34-.8,.48-.53,.91-1.44,1.27-2.72l1.05,.22c-.07,.44-.22,.94-.45,1.51-.23,.57-.54,1.13-.93,1.69-.39,.56-.86,1.02-1.42,1.38s-1.2,.54-1.92,.54c-.97,0-1.67-.3-2.12-.91-.45-.6-.67-1.39-.67-2.36,0-.7,.05-1.43,.15-2.2,.1-.76,.23-1.59,.4-2.49h-.11c-.65,2.2-1.37,3.88-2.16,5.03-.79,1.15-1.57,1.92-2.36,2.32-.79,.4-1.54,.6-2.27,.6Zm.76-1.7c.77,0,1.54-.44,2.31-1.31,.76-.87,1.46-2.01,2.09-3.41,.63-1.4,1.11-2.89,1.45-4.46,.19-.85,.36-1.79,.49-2.83,.13-1.04,.27-2.23,.42-3.56-.39-.15-.79-.24-1.22-.29-.42-.05-.84-.07-1.25-.07-1.02,0-1.91,.21-2.67,.62-.76,.41-1.41,.97-1.94,1.67-.53,.7-.96,1.49-1.29,2.36-.33,.87-.56,1.78-.71,2.72s-.22,1.86-.22,2.76c0,1.65,.19,3.02,.56,4.14,.38,1.11,1.04,1.67,1.98,1.67Z"/><path class="c" d="M567.72,1024.87c.58,0,1.05,.22,1.42,.67,.36,.45,.52,.99,.47,1.62-.03,.65-.25,1.2-.69,1.63-.44,.44-.93,.65-1.49,.65s-1.03-.22-1.42-.65c-.39-.43-.57-.98-.54-1.63,.05-.63,.3-1.17,.74-1.62,.45-.45,.95-.67,1.51-.67Z"/><path class="c" d="M576.13,1024.87c.58,0,1.05,.22,1.42,.67,.36,.45,.52,.99,.47,1.62-.03,.65-.25,1.2-.69,1.63-.44,.44-.93,.65-1.49,.65s-1.03-.22-1.42-.65c-.39-.43-.57-.98-.54-1.63,.05-.63,.3-1.17,.74-1.62,.45-.45,.95-.67,1.51-.67Z"/><path class="c" d="M584.55,1024.87c.58,0,1.05,.22,1.42,.67,.36,.45,.52,.99,.47,1.62-.03,.65-.25,1.2-.69,1.63-.44,.44-.93,.65-1.49,.65s-1.03-.22-1.42-.65c-.39-.43-.57-.98-.54-1.63,.05-.63,.3-1.17,.74-1.62,.45-.45,.95-.67,1.51-.67Z"/><path class="c" d="M600.04,1003.39c2.81,0,4.95,.5,6.44,1.49,1.49,.99,2.16,2.56,2.01,4.72-.05,.77-.3,1.55-.76,2.32-.46,.77-1.14,1.46-2.03,2.05-.89,.59-2.02,1.01-3.37,1.25v.07c2.66,0,4.62,.61,5.88,1.83s1.83,2.76,1.7,4.63c-.07,1.48-.5,2.75-1.29,3.81-.79,1.06-1.83,1.88-3.12,2.45s-2.76,.85-4.41,.85h-10.49l.07-1.2c.92-.02,1.56-.24,1.92-.63s.58-.94,.65-1.63c.07-.69,.13-1.48,.18-2.38l.8-15.24c.03-.65,.06-1.22,.11-1.69s.1-.86,.15-1.18c-.44,.03-.88,.05-1.32,.07-.45,.02-.89,.05-1.33,.07l.11-1.6c1.33,0,2.65-.01,3.96-.04s2.68-.04,4.14-.04Zm.51,12.88c-.73,0-1.38,0-1.98,.02-.59,.01-1.18,.04-1.76,.09l-.44,8.16c-.03,.65-.06,1.21-.11,1.67-.05,.46-.1,.85-.15,1.16,.39,.02,.85,.04,1.4,.05,.54,.01,1.05,.02,1.52,.02h.93c1.86,0,3.39-.46,4.59-1.38,1.2-.92,1.84-2.29,1.94-4.1,.07-1.43-.16-2.56-.71-3.39-.55-.83-1.28-1.43-2.2-1.78-.92-.35-1.93-.53-3.05-.53Zm-.4-11.57c-.78,0-1.36,.11-1.76,.33-.4,.22-.68,.58-.83,1.09-.16,.51-.26,1.21-.31,2.11l-.36,6.75c.46,0,.92,0,1.38-.02,.46-.01,.88-.03,1.27-.05,1.38-.07,2.48-.38,3.32-.91,.83-.53,1.44-1.2,1.83-2.01,.39-.81,.59-1.66,.62-2.56,.05-1.31-.19-2.3-.73-2.98-.53-.68-1.2-1.14-2.01-1.38s-1.61-.36-2.41-.36Z"/><path class="c" d="M619.38,1001.47c-.07,.6-.18,1.28-.31,2.03-.13,.75-.25,1.49-.36,2.21-.11,.73-.2,1.37-.27,1.92-.15,1.02-.29,2.17-.44,3.47-.15,1.29-.29,2.64-.44,4.03-.15,1.39-.27,2.75-.38,4.08-.11,1.33-.2,2.55-.27,3.65-.07,1.1-.11,2-.11,2.7,0,.46,.05,.89,.15,1.29,.1,.4,.38,.6,.83,.6,.41,0,.86-.26,1.36-.78s.93-1.43,1.29-2.74l1.02,.25c-.07,.41-.23,.91-.45,1.49-.23,.58-.54,1.14-.93,1.69s-.85,1-1.4,1.36-1.18,.54-1.91,.54c-.99,0-1.72-.25-2.18-.74-.46-.5-.7-1.23-.73-2.19-.02-.6,0-1.5,.09-2.69,.08-1.18,.19-2.53,.33-4.04,.13-1.51,.29-3.1,.45-4.75,.17-1.66,.35-3.27,.54-4.84s.38-3,.54-4.28c.12-.65,.2-1.08,.24-1.29,.04-.21,.07-.43,.09-.67-.44,.03-.86,.05-1.29,.07s-.85,.05-1.29,.07l.18-1.45c1.07,0,1.89-.05,2.49-.14,.59-.1,1.04-.22,1.36-.36,.31-.15,.57-.3,.76-.47h1.02Z"/><path class="c" d="M632.27,1010.32c1.3,0,2.48,.31,3.52,.93s1.86,1.52,2.47,2.7c.6,1.18,.91,2.62,.91,4.32,0,1.94-.35,3.74-1.05,5.42-.7,1.68-1.71,3.03-3.03,4.05-1.32,1.02-2.92,1.52-4.81,1.52-1.6,0-2.91-.36-3.94-1.09-1.03-.73-1.79-1.7-2.28-2.94-.5-1.23-.74-2.6-.74-4.1,0-1.96,.36-3.76,1.07-5.41,.71-1.65,1.74-2.96,3.08-3.94,1.34-.98,2.95-1.47,4.81-1.47Zm-.54,1.34c-1.07-.02-1.98,.33-2.76,1.07-.78,.74-1.37,1.74-1.8,2.99s-.65,2.66-.67,4.21c-.03,.82,.02,1.69,.14,2.61,.12,.92,.33,1.78,.64,2.58,.3,.8,.73,1.45,1.27,1.96s1.23,.77,2.05,.8c.97,.02,1.79-.24,2.47-.78,.68-.54,1.22-1.25,1.63-2.12,.41-.87,.72-1.8,.93-2.79,.2-.99,.32-1.92,.34-2.79,.03-.85-.02-1.72-.13-2.61-.11-.89-.32-1.73-.63-2.5-.31-.77-.75-1.4-1.31-1.87s-1.28-.72-2.18-.74Z"/><path class="c" d="M651.17,1010.32c1.3,0,2.48,.31,3.52,.93s1.86,1.52,2.47,2.7c.6,1.18,.91,2.62,.91,4.32,0,1.94-.35,3.74-1.05,5.42-.7,1.68-1.71,3.03-3.03,4.05-1.32,1.02-2.92,1.52-4.81,1.52-1.6,0-2.91-.36-3.94-1.09-1.03-.73-1.79-1.7-2.28-2.94-.5-1.23-.74-2.6-.74-4.1,0-1.96,.36-3.76,1.07-5.41,.71-1.65,1.74-2.96,3.08-3.94,1.34-.98,2.95-1.47,4.81-1.47Zm-.54,1.34c-1.07-.02-1.98,.33-2.76,1.07-.78,.74-1.37,1.74-1.8,2.99-.42,1.26-.65,2.66-.67,4.21-.03,.82,.02,1.69,.14,2.61,.12,.92,.33,1.78,.64,2.58s.73,1.45,1.27,1.96,1.23,.77,2.05,.8c.97,.02,1.79-.24,2.47-.78,.68-.54,1.22-1.25,1.63-2.12,.41-.87,.72-1.8,.93-2.79,.2-.99,.32-1.92,.34-2.79,.03-.85-.02-1.72-.13-2.61-.11-.89-.32-1.73-.63-2.5-.31-.77-.75-1.4-1.31-1.87s-1.28-.72-2.18-.74Z"/><path class="c" d="M686.29,1029.26c-1.14,0-1.91-.3-2.3-.91-.4-.6-.6-1.46-.6-2.58,0-.68,.07-1.48,.2-2.39,.13-.92,.28-1.9,.45-2.94,.17-1.04,.32-2.09,.45-3.16s.2-2.08,.2-3.05c0-.29-.05-.6-.15-.94-.1-.34-.26-.63-.51-.89s-.6-.38-1.09-.38c-.68,0-1.34,.31-2,.94-.65,.63-1.26,1.48-1.81,2.54-.56,1.06-1.05,2.24-1.47,3.54-.43,1.29-.76,2.63-1,3.99-.24,1.37-.36,2.67-.36,3.9,0,.36,0,.7,.02,1,.01,.3,.03,.61,.05,.93h-3.05c-.02-.17-.04-.32-.04-.45v-.49c0-.92,.07-2.01,.2-3.27,.13-1.26,.29-2.55,.47-3.88,.18-1.33,.34-2.59,.47-3.77,.13-1.18,.19-2.15,.16-2.9-.03-.41-.15-.86-.36-1.34-.22-.48-.68-.73-1.38-.73s-1.34,.31-1.98,.94c-.64,.63-1.24,1.48-1.79,2.54-.56,1.06-1.05,2.24-1.49,3.54-.44,1.29-.78,2.63-1.02,3.99-.24,1.37-.36,2.67-.36,3.9,0,.36,0,.7,.02,1,.01,.3,.03,.61,.05,.93h-3.05c-.03-.17-.04-.32-.04-.45v-.49c0-.41,.02-.89,.05-1.43,.04-.55,.11-1.27,.22-2.18,.11-.91,.25-2.12,.42-3.65,.17-1.43,.3-2.54,.4-3.34,.1-.8,.17-1.41,.22-1.83,.05-.42,.08-.75,.09-.98,.01-.23,.02-.48,.02-.74,0-.44-.06-.82-.18-1.14-.12-.33-.39-.49-.8-.49-.39,0-.83,.27-1.34,.8-.51,.53-.94,1.44-1.3,2.72l-1.02-.22c.07-.44,.22-.94,.45-1.51,.23-.57,.54-1.13,.93-1.69,.39-.56,.86-1.02,1.42-1.38s1.2-.54,1.92-.54c.8,0,1.39,.2,1.78,.6,.39,.4,.65,.92,.78,1.56,.13,.64,.18,1.34,.13,2.09-.02,.68-.1,1.36-.22,2.05-.12,.69-.23,1.29-.33,1.8h.11c.77-2.2,1.54-3.88,2.3-5.04,.76-1.16,1.51-1.96,2.25-2.39s1.43-.65,2.09-.65c.97,0,1.74,.22,2.31,.67,.57,.45,.97,.99,1.22,1.61,.24,.63,.36,1.25,.36,1.85,0,.68-.05,1.26-.15,1.74-.1,.48-.25,1.19-.47,2.11h.11c.8-2.2,1.59-3.88,2.38-5.03,.79-1.15,1.55-1.93,2.31-2.34,.75-.41,1.45-.62,2.11-.62,.97,0,1.73,.22,2.28,.65,.56,.44,.95,1.01,1.18,1.72,.23,.71,.34,1.49,.34,2.34,0,1.33-.1,2.69-.29,4.08s-.39,2.67-.6,3.85c-.21,1.17-.31,2.11-.31,2.81,0,.43,.05,.82,.16,1.16s.38,.51,.82,.51c.41,0,.87-.26,1.38-.78,.51-.52,.94-1.43,1.31-2.74l1.02,.25c-.07,.41-.23,.91-.47,1.49s-.56,1.14-.94,1.69c-.39,.54-.86,1-1.42,1.36s-1.2,.54-1.92,.54Z"/><path class="c" d="M698.37,1029.26c-.97,0-1.9-.15-2.8-.45s-1.62-.74-2.18-1.32c-.56-.58-.84-1.28-.84-2.1,0-.53,.15-.96,.45-1.29,.3-.33,.67-.49,1.11-.49,.48,0,.85,.16,1.11,.47,.25,.31,.38,.67,.38,1.05,0,.17-.03,.35-.07,.54-.05,.19-.13,.39-.25,.58,.19,.53,.58,.94,1.16,1.23,.58,.29,1.2,.44,1.85,.44,1.3,0,2.28-.3,2.94-.91,.65-.6,.98-1.45,.98-2.54,0-.65-.23-1.23-.69-1.74-.46-.51-1.04-.98-1.74-1.43-.7-.45-1.43-.89-2.18-1.32-.7-.44-1.37-.88-2.01-1.34-.64-.46-1.16-.97-1.56-1.52-.4-.56-.6-1.18-.6-1.89,0-.89,.27-1.71,.8-2.45s1.27-1.33,2.21-1.78c.94-.45,2.03-.67,3.27-.67,.92,0,1.78,.14,2.59,.44,.81,.29,1.48,.7,2,1.23,.52,.53,.78,1.16,.78,1.89,0,.51-.15,.91-.44,1.22-.29,.3-.65,.45-1.09,.45s-.79-.15-1.05-.44c-.27-.29-.4-.63-.4-1.02,0-.19,.02-.38,.07-.56s.13-.37,.25-.56c-.12-.41-.42-.76-.89-1.03-.47-.28-1.12-.42-1.94-.42-.53,0-1.05,.12-1.56,.36s-.93,.58-1.27,1c-.34,.42-.51,.92-.51,1.5,0,.46,.14,.88,.42,1.27,.28,.39,.65,.75,1.11,1.09,.46,.34,.95,.68,1.49,1.02,.87,.51,1.77,1.05,2.68,1.62,.92,.57,1.69,1.22,2.3,1.94,.62,.73,.93,1.61,.93,2.65s-.28,1.92-.85,2.72-1.37,1.43-2.39,1.89c-1.03,.46-2.22,.69-3.57,.69Z"/><path class="c" d="M711.69,1024.77c.6,0,1.1,.23,1.49,.69,.39,.46,.56,1.02,.51,1.67-.03,.65-.27,1.2-.74,1.65-.47,.45-.99,.67-1.54,.67s-1.03-.22-1.42-.67c-.39-.45-.57-1-.54-1.65,.05-.65,.3-1.21,.74-1.67,.45-.46,.95-.69,1.51-.69Zm1.16-21.88c.53,0,.94,.13,1.23,.4,.29,.27,.48,.6,.58,1s.11,.82,.04,1.25l-2.14,14.99h-1.34l-.54-14.99c-.02-.63,.15-1.23,.51-1.8,.36-.57,.92-.85,1.67-.85Z"/></g><g><path class="c" d="M523.18,524.74l-14.48-19.45c-.22-.29-.43-.57-.64-.85s-.42-.56-.63-.85h-.04l.11,15.53v1.81c0,.61-.02,1.2-.07,1.78,.43-.02,.87-.05,1.3-.07s.87-.05,1.31-.07v1.6h-6.64v-1.2c.75,0,1.29-.16,1.62-.49s.54-.71,.64-1.16c.1-.45,.14-.85,.14-1.22l.04-17.45v-2.43c-.39,.03-.79,.05-1.2,.07s-.82,.05-1.23,.07v-1.6h4.32l13.61,18.21c.31,.41,.62,.82,.93,1.23,.3,.41,.61,.82,.93,1.23h.04l.04-16.62c0-.48,.01-.95,.04-1.4,.02-.45,.05-.85,.07-1.22-.44,.03-.87,.05-1.31,.07s-.87,.05-1.31,.07v-1.6h6.68v1.2c-.89,.02-1.51,.23-1.85,.62-.34,.39-.52,.91-.55,1.56-.02,.65-.04,1.42-.04,2.29l-.07,20.32h-1.74Z"/><path class="c" d="M536.79,524.16v-1.2c.92-.05,1.54-.27,1.87-.65,.33-.39,.51-.91,.54-1.58,.04-.66,.05-1.41,.05-2.23l.04-4.14-6.31-9.98c-.6-.97-1.06-1.78-1.36-2.43-.3-.65-.5-1.21-.6-1.67-.39,.02-.76,.04-1.13,.04s-.74,.01-1.12,.04v-1.6h9.36v1.2c-1.11,0-1.89,.17-2.32,.51s-.6,.8-.49,1.4c.11,.59,.4,1.28,.89,2.05l2.9,4.57c.22,.34,.45,.69,.69,1.05,.24,.36,.49,.73,.74,1.11,.25,.38,.53,.77,.82,1.18h.07c.27-.53,.53-1.05,.8-1.54,.26-.5,.52-.97,.76-1.43l3.08-5.84c.12-.24,.27-.53,.45-.85s.38-.66,.6-1.02c.22-.35,.45-.65,.69-.89-.46,.03-.93,.04-1.42,.05-.48,.01-.97,.03-1.45,.06v-1.6h7.4v1.2c-1.19,.07-2.16,.48-2.92,1.23-.76,.75-1.57,1.9-2.41,3.45-.82,1.55-1.62,3.04-2.38,4.46-.76,1.43-1.49,2.82-2.2,4.17,0,.44,0,1.02-.02,1.74-.01,.73-.02,1.46-.02,2.2v2.63c0,.65,0,1.22-.02,1.69-.01,.47-.04,.86-.09,1.18,.51-.02,1.01-.05,1.5-.07s1-.05,1.51-.07v1.6h-8.53Z"/><path class="c" d="M553.99,524.16v-1.2c.92-.05,1.55-.26,1.89-.63,.34-.38,.53-.9,.56-1.56,.04-.66,.06-1.42,.06-2.27v-15.68c0-.48,.01-.95,.04-1.4,.02-.45,.05-.85,.07-1.22-.44,.03-.87,.05-1.31,.07s-.87,.05-1.31,.07v-1.6h8.16v1.2c-.89,.02-1.52,.23-1.87,.62-.35,.39-.54,.91-.58,1.56-.04,.65-.05,1.42-.05,2.29v5.95h2.72l4.54-7.15c.31-.48,.7-1.02,1.16-1.6,.46-.58,.93-1.06,1.42-1.45-.36,.02-.73,.04-1.11,.04s-.74,.01-1.11,.04v-1.49h7.8v1.2c-1.02,.07-1.92,.24-2.72,.51-.8,.27-1.56,.73-2.29,1.4-.73,.66-1.5,1.66-2.32,2.99l-3.56,5.66c.7,.41,1.27,.89,1.7,1.43,.44,.55,.87,1.1,1.31,1.65l4.06,5.41c.92,1.21,1.67,2.1,2.27,2.67,.59,.57,1.12,.93,1.6,1.07,.47,.14,.96,.22,1.47,.22v1.2h-4.43c-.24,0-.56-.17-.96-.51-.4-.34-.83-.78-1.29-1.32-.46-.54-.93-1.12-1.42-1.72l-4.35-5.88c-.46-.6-.92-1.18-1.38-1.72s-.91-.95-1.34-1.22l-1.78,.04v8.02c0,.65,0,1.22-.02,1.69-.01,.47-.04,.86-.09,1.18,.44-.02,.87-.05,1.31-.07,.43-.02,.87-.05,1.3-.07v1.6h-8.16Z"/></g></g></svg>