<?xml version="1.0" encoding="UTF-8"?><svg id="a" xmlns="http://www.w3.org/2000/svg" xmlns:xlink="http://www.w3.org/1999/xlink" viewBox="0 0 128 128"><defs><style>.c{fill:#ff8080;}.d{clip-path:url(#b);}.e{fill:#ee6061;fill-rule:evenodd;}.f{fill:#ffbebe;}.g{fill:#ff6e6f;}.h{fill:none;}.i{fill:#ff8e8e;}</style><clipPath id="b"><rect class="h" y="1.07" width="128" height="125.87"/></clipPath></defs><g class="d"><path class="c" d="M72.59,52.16c2.18-9.63,10.64-17,15.6-25.27,3.79-6.33-1.04-13.23-7.98-16.53-12.07-5.49-19.93-.23-22.37,10.88-2.75,13.01,3.79,26.7,6.35,30.07,1.78,.73,6.07,.27,8.41,.85Z"/><path class="g" d="M63.57,49.45c-4.68-8.72-3.11-19.75-4.78-29.23-1.29-7.24-9.49-9.37-16.93-7.41-12.78,3.61-15.29,12.66-9.83,22.66,6.47,11.65,20.44,17.84,24.6,18.75,1.83-.59,4.79-3.71,6.94-4.76Z"/><path class="c" d="M54.94,53.21c-9.28-3.61-15.35-13-22.86-19.12-5.74-4.67-13.37-1.01-17.73,5.27-7.33,10.96-3.28,19.45,7.44,23.54,12.57,4.68,27.25,.39,31.01-1.6,1-1.63,1.2-5.9,2.14-8.09Z"/><path class="i" d="M50.85,61.62c-9.42,3.24-20.21,.01-29.93,.2-7.43,.15-10.82,7.85-10,15.42,1.65,13.04,10.3,16.88,21.13,13.08,12.63-4.54,20.95-17.25,22.49-21.18-.31-1.88-2.97-5.25-3.69-7.52Z"/><path class="g" d="M53.28,70.63c-5.02,8.52-15.34,13.02-22.6,19.42-5.54,4.9-3.05,12.92,2.55,18.14,9.83,8.84,18.93,6.19,24.65-3.67,6.6-11.58,4.56-26.58,3.15-30.56-1.48-1.23-5.71-2.07-7.75-3.33Z"/><path class="c" d="M61.06,75.91c1.79,9.71-3.08,19.76-4.38,29.29-.99,7.29,6.18,11.78,13.87,12.14,13.28,.39,18.44-7.48,16.3-18.66-2.6-13.04-14.02-23.12-17.71-25.23-1.93,.02-5.7,2.1-8.08,2.46Z"/><path class="i" d="M70.43,74.92c7.74,6.22,10.65,16.99,15.94,25.06,4.04,6.17,12.44,4.96,18.51,.29,10.34-8.25,9.08-17.56,.11-24.66-10.55-8.23-25.86-8.53-30.05-7.76-1.46,1.25-2.94,5.26-4.51,7.07Z"/><path class="g" d="M76.9,68.13c9.97-.26,19.26,6.04,28.59,8.77,7.13,2.08,12.71-4.24,14.25-11.7,2.42-12.92-4.65-19.18-16.14-18.8-13.42,.55-25.24,10.17-27.92,13.45-.28,1.89,1.23,5.89,1.22,8.27Z"/><path class="i" d="M77.34,58.81c7.4-6.62,18.6-7.82,27.48-11.74,6.78-3.01,6.86-11.4,3.12-18.05-6.66-11.37-16.15-11.57-24.62-3.88-9.83,9.06-12.48,23.97-12.35,28.19,1.03,1.61,4.8,3.68,6.37,5.49Z"/><path class="f" d="M83.92,62.88c0,1.27-.13,2.53-.38,3.77-.25,1.25-.62,2.45-1.11,3.63-.49,1.17-1.09,2.29-1.81,3.34-.71,1.06-1.52,2.03-2.43,2.93-.91,.9-1.89,1.7-2.96,2.4-1.07,.71-2.19,1.3-3.38,1.79-1.19,.49-2.41,.85-3.67,1.1-1.26,.25-2.53,.37-3.81,.37s-2.55-.12-3.81-.37c-1.26-.25-2.48-.61-3.67-1.1s-2.31-1.08-3.38-1.79c-1.07-.71-2.05-1.51-2.96-2.4-.91-.9-1.72-1.87-2.43-2.93-.71-1.06-1.31-2.17-1.81-3.34-.49-1.17-.86-2.38-1.11-3.63-.25-1.25-.38-2.5-.38-3.77s.13-2.53,.38-3.77c.25-1.25,.62-2.45,1.11-3.63,.49-1.17,1.09-2.29,1.81-3.34,.71-1.06,1.52-2.03,2.43-2.93,.91-.9,1.89-1.7,2.96-2.4,1.07-.71,2.19-1.3,3.38-1.79,1.19-.49,2.41-.85,3.67-1.1,1.26-.25,2.53-.37,3.81-.37s2.55,.12,3.81,.37c1.26,.25,2.48,.61,3.67,1.1,1.19,.49,2.31,1.08,3.38,1.79,1.07,.71,2.05,1.51,2.96,2.4,.91,.9,1.72,1.87,2.43,2.93,.71,1.06,1.31,2.17,1.81,3.34,.49,1.17,.86,2.38,1.11,3.63,.25,1.25,.38,2.5,.38,3.77Z"/><path class="e" d="M98.69,32.09c-2.75,1.25-5.49,3.16-7.99,5.25-2.5,2.09-4.77,4.37-6.59,6.35,5.08-3.95,11.02-8.72,14.58-11.6Z"/><path class="e" d="M74.12,18.07c-1.5,2.6-2.6,5.73-3.4,8.87-.8,3.14-1.3,6.3-1.62,8.96,1.8-6.14,3.82-13.44,5.01-17.83Z"/><path class="e" d="M43.78,21.83c.46,2.96,1.57,6.09,2.93,9.03,1.35,2.95,2.95,5.73,4.38,8.01-2.46-5.92-5.48-12.86-7.31-17.04Z"/><path class="e" d="M21.53,45.49c2.32,1.92,5.24,3.55,8.23,4.87,2.99,1.34,6.04,2.38,8.63,3.16-5.79-2.84-12.7-6.09-16.86-8.03Z"/><path class="e" d="M38.03,71.27c-3.17,.64-6.62,1.36-9.83,2.05-3.22,.69-6.21,1.34-8.46,1.84,6.06,.22,13.24-1.97,18.29-3.89Z"/><path class="e" d="M50.83,86.74c-1.89,2.6-3.92,5.45-5.8,8.12-1.89,2.67-3.63,5.16-4.94,7.04,4.59-3.92,8.35-10.35,10.74-15.16Z"/><path class="e" d="M70.75,89.51c.39,3.18,.85,6.64,1.29,9.86,.44,3.23,.86,6.23,1.18,8.49,.7-5.96-.94-13.21-2.47-18.35Z"/><path class="e" d="M86.55,79.26c2.36,2.19,4.96,4.55,7.39,6.74,2.43,2.2,4.7,4.23,6.41,5.76-3.33-5.01-9.29-9.53-13.8-12.5Z"/><path class="e" d="M110.69,63.93c-2.86-.97-6.18-1.46-9.44-1.64-3.27-.19-6.5-.08-9.2,.11,6.44,.6,14.06,1.19,18.65,1.53Z"/></g></svg>